<svg viewBox="0 0 256 256" fill="none" xmlns="http://www.w3.org/2000/svg">
    <path d="M 60.901 37.747 C 88.061 58.137 117.273 99.482 127.999 121.666 C 138.727 99.482 167.938 58.137 195.099 37.747 C 214.696 23.034 246.45 11.651 246.45 47.874 C 246.45 55.109 242.302 108.648 239.869 117.34 C 231.413 147.559 200.6 155.266 173.189 150.601 C 221.101 158.756 233.288 185.766 206.966 212.776 C 156.975 264.073 135.115 199.905 129.514 183.464 C 128.487 180.449 128.007 179.038 127.999 180.238 C 127.992 179.038 127.512 180.449 126.486 183.464 C 120.884 199.905 99.024 264.073 49.033 212.776 C 22.711 185.766 34.899 158.756 82.81 150.601 C 55.4 155.266 24.587 147.559 16.13 117.34 C 13.697 108.648 9.55 55.109 9.55 47.874 C 9.55 11.651 41.304 23.034 60.901 37.747 Z"
          fill="white"></path>
</svg>